<svg version="1.1" xmlns="http://www.w3.org/2000/svg" viewBox="0 0 1024 512" fill="dodgerblue">
    <style>
        .right {
            animation: Right 3000ms infinite ease-out;
        }

        .right-0 {
            animation-delay: 0ms;
        }

        .right-1 {
            animation-delay: 250ms;
        }

        .right-2 {
            animation-delay: 500ms;
        }

        .right-3 {
            animation-delay: 750ms;
        }

        .right-4 {
            animation-delay: 1000ms;
        }

        @keyframes Right {
            0% {
                cx: 200;
            }

            50% {
                cx: 850;
            }

            100% {
                cx: 850;
            }
        }

        .left {
            animation: Left 3000ms infinite ease-out;
        }

        .left-0 {
            animation-delay: 2000ms;
        }

        .left-1 {
            animation-delay: 2250ms;
        }

        .left-2 {
            animation-delay: 2500ms;
        }

        .left-3 {
            animation-delay: 2750ms;
        }

        .left-4 {
            animation-delay: 21000ms;
        }

        @keyframes Left {
            0% {
                cx: 850;
            }

            50% {
                cx: 200;
            }

            100% {
                cx: 200;
            }
        }
    </style>

    <g opacity=".3">
        <g transform="translate(40 196)">
            <rect x="0" y="0" width="192" height="96" />
            <rect x="72" y="95" width="48" height="18" />
            <rect x="48" y="112" width="96" height="8" />
        </g>

        <g transform="translate(800 200) scale(1.1)">
            <circle cx="64" cy="16" r="32" />
            <circle cx="112" cy="16" r="32" />
            <circle cx="32" cy="48" r="32" />
            <circle cx="80" cy="48" r="32" />
            <circle cx="136" cy="48" r="32" />
            <circle cx="50" cy="80" r="24" />
            <circle cx="80" cy="80" r="30" />
            <circle cx="110" cy="76" r="24" />
        </g>

        <circle class="right right-0" cx="190" cy="280" r="4" />
        <circle class="right right-1" cx="190" cy="280" r="4" />
        <circle class="right right-2" cx="190" cy="280" r="4" />
        <circle class="right right-3" cx="190" cy="280" r="4" />
        <circle class="right right-4" cx="190" cy="280" r="4" />

        <circle class="left left-0" cx="190" cy="230" r="4" />
        <circle class="left left-1" cx="190" cy="230" r="4" />
        <circle class="left left-2" cx="190" cy="230" r="4" />
        <circle class="left left-3" cx="190" cy="230" r="4" />
        <circle class="left left-4" cx="190" cy="230" r="4" />
    </g>
</svg>
