<svg version="1.1" xmlns="http://www.w3.org/2000/svg" viewBox="0 0 512 512" fill="#ffffff">
    <path d="m256 120c-90.981 0-165 74.019-165 165s74.019 165 165 165 165-74.019 165-165-74.019-165-165-165zm15 255h-30v-30h30zm7.515-96.035c-4.629 2.681-7.515 7.676-7.515 13.008v23.027h-30v-23.027c0-16.011 8.613-30.938 22.485-38.965 4.644-2.681 7.515-7.661 7.515-13.008 0-8.276-6.724-15-15-15s-15 6.724-15 15h-30c0-24.814 20.186-45 45-45s45 20.186 45 45c0 16.011-8.613 30.952-22.485 38.965z" />
    <path d="m61 285c0-26.569 5.38-51.896 15.046-75h-31.046c-24.814 0-45 20.186-45 45v60c0 24.814 20.186 45 45 45h31.046c-9.666-23.104-15.046-48.431-15.046-75z" />
    <path d="m467 210h-31.044c9.666 23.104 15.044 48.431 15.044 75s-5.378 51.896-15.044 75h31.044c24.814 0 45-20.186 45-45v-60c0-24.814-20.186-45-45-45z" />
    <path d="m445.549 180h20.451c3.64 0 7.126.571 10.629 1.075-20.493-103.105-111.592-181.075-220.629-181.075s-200.136 77.97-220.629 181.075c3.503-.504 6.989-1.075 10.629-1.075h20.451c20.396-85.864 97.539-150 189.549-150s169.153 64.136 189.549 150z" />
    <path d="m466 390h-16.516c-7.357 50.75-50.729 92-103.484 92h-105v30h105c69.78 0 126.682-55.405 133.623-123.379-4.431.819-8.957 1.379-13.623 1.379z" />
</svg>
