<svg xmlns="http://www.w3.org/2000/svg" viewBox="0 0 512 512" fill="#ffffff">
    <g style="transform-origin: center; transform: scale(1.4) translateX(64px);">
        <path
            d="m166.28125 98.636719h-89.523438c-8.285156 0-15 6.714843-15 15 0 8.285156 6.714844 15 15 15h89.523438c8.28125 0 15-6.714844 15-15 0-8.285157-6.71875-15-15-15zm0 0" />
        <path
            d="m166.28125 158.640625h-89.523438c-8.285156 0-15 6.714844-15 15s6.714844 15 15 15h89.523438c8.28125 0 15-6.714844 15-15s-6.71875-15-15-15zm0 0" />
        <path
            d="m166.28125 218.644531h-89.523438c-8.285156 0-15 6.714844-15 15 0 8.285157 6.714844 15 15 15h89.523438c8.28125 0 15-6.714843 15-15 0-8.285156-6.71875-15-15-15zm0 0" />
        <path
            d="m166.28125 278.648438h-89.523438c-8.285156 0-15 6.714843-15 15 0 8.285156 6.714844 15 15 15h89.523438c8.28125 0 15-6.714844 15-15 0-8.285157-6.71875-15-15-15zm0 0" />
        <path
            d="m166.28125 339.65625h-89.523438c-8.285156 0-15 6.71875-15 15 0 8.285156 6.714844 15 15 15h89.523438c8.28125 0 15-6.714844 15-15 0-8.28125-6.71875-15-15-15zm0 0" />
        <path
            d="m216.65625 128.636719h89.523438c8.285156 0 15-6.714844 15-15 0-8.285157-6.714844-15-15-15h-89.523438c-8.28125 0-15 6.714843-15 15 0 8.285156 6.71875 15 15 15zm0 0" />
        <path
            d="m216.65625 188.640625h89.523438c8.285156 0 15-6.714844 15-15s-6.714844-15-15-15h-89.523438c-8.28125 0-15 6.714844-15 15s6.71875 15 15 15zm0 0" />
        <path
            d="m274.773438 233.644531c0-8.285156-6.714844-15-15-15h-43.117188c-8.28125 0-15 6.714844-15 15 0 8.285157 6.71875 15 15 15h43.117188c8.285156 0 15-6.714843 15-15zm0 0" />

        <g style="transform-origin: center; transform: translateX(-80px) translateY(-40px);">
            <path
                d="m416.871094 345.988281c-6.460938-5.183593-15.898438-4.148437-21.085938 2.3125l-38.632812 48.164063-23.917969-17.328125c-6.707031-4.863281-16.089844-3.363281-20.949219 3.34375-4.859375 6.710937-3.359375 16.089843 3.347656 20.949219l35.480469 25.707031c2.65625 1.921875 5.734375 2.855469 8.792969 2.855469 4.402344 0 8.753906-1.933594 11.707031-5.617188l47.574219-59.300781c5.183594-6.460938 4.148438-15.902344-2.316406-21.085938zm0 0" />
        </g>
    </g>
</svg>
