<svg xmlns="http://www.w3.org/2000/svg" viewBox="0 0 512 512" fill="#ffffff">
    <g style="transform-origin: center; transform: scale(1.7) translateY(-50px);">
        <path
            d="m356 202c-18.955 0-35.996-10.532-44.472-27.484l-2.111-4.223c-2.541-5.083-7.735-8.293-13.417-8.293h-80c-5.682 0-10.876 3.21-13.417 8.292l-2.111 4.222c-8.476 16.954-25.517 27.486-44.472 27.486-8.284 0-15 6.716-15 15v85.597c0 33.654 10.619 65.715 30.708 92.716 20.089 27 47.747 46.384 79.982 56.054 1.406.422 2.858.633 4.31.633s2.904-.211 4.31-.633c32.235-9.67 59.893-29.054 79.982-56.054 20.089-27.001 30.708-59.062 30.708-92.716v-85.597c0-8.284-6.716-15-15-15zm-15 100.597c0 54.256-33.971 101.385-85 118.66-51.029-17.275-85-64.404-85-118.66v-71.995c22.701-4.285 42.437-18.2 54.125-38.603h61.75c11.688 20.402 31.424 34.318 54.125 38.603z" />
        <path
            d="m287.82 268.109-45.962 45.961-17.678-17.677c-5.857-5.858-15.355-5.858-21.213 0s-5.858 15.355 0 21.213l28.284 28.284c2.929 2.929 6.768 4.394 10.606 4.394s7.678-1.464 10.606-4.394l56.568-56.568c5.858-5.858 5.858-15.355 0-21.213-5.856-5.858-15.354-5.858-21.211 0z" />
    </g>
</svg>
